<?xml version="1.0" encoding="UTF-8"?>
<svg id="b" data-name="Layer 2" xmlns="http://www.w3.org/2000/svg" width="29.95675" height="63.24618" viewBox="0 0 29.95675 63.24618">
  <g id="c" data-name="Layer 1">
    <g>
      <path d="m29.92859,22.03993c0,4.42619.10364,8.23928-.08677,12.03763-.03844.76692-1.04593,1.78292-1.85255,2.16491-4.86781,2.30519-9.7683,4.55277-14.74098,6.61968-2.08916.86835-3.0894,1.88978-2.99758,4.35181.16662,4.46743-.19328,8.95194-.16066,13.42807.01452,1.99261-.7214,2.65566-2.64003,2.49546-2.2917-.19134-5.41933.6455-6.66371-.5483-1.21464-1.16528-.60791-4.32756-.63273-6.61497-.06836-6.30005-.07247-12.60124-.02513-18.9014.00446-.59417.3997-1.50958.86881-1.72823,9.44339-4.4016,18.92424-8.72285,28.93133-13.30465Z" style="fill: #0698d3;"/>
      <path d="m29.8905,0c0,4.12411.06672,7.92941-.0595,11.7283-.02364.71135-.65669,1.75762-1.28334,2.04037-9.04505,4.08117-18.13608,8.06054-27.22289,12.04882-.27828.12214-.63.07699-1.31574.14793C.00903,22.04523-.03192,18.25161.0606,14.46125c.01163-.47629.63122-1.13767,1.1297-1.37249C10.31952,8.78835,19.47252,4.53839,28.62545.28842c.27859-.12936.61062-.14365,1.26505-.28842Z" style="fill: #0698d3;"/>
    </g>
  </g>
</svg>