<?xml version="1.0" encoding="UTF-8"?>
<svg id="a" data-name="Layer 1" xmlns="http://www.w3.org/2000/svg" width="259.62452" height="86.4026" viewBox="0 0 259.62452 86.4026">
  <path d="M258.45093,43.78988c-.50399,0-.99373,.2511-1.46922,.75509-.47371,.50221-1.04715,1.08989-1.71854,1.76128-1.78978,1.67758-3.91614,2.54487-6.37552,2.60007h-.50399c1.28579-3.02036,1.93047-5.88578,1.93047-8.59805s-.67139-4.9348-2.01239-6.66937c-1.34278-1.73279-3.56531-2.58583-6.67115-2.55911-3.10228,.03027-5.64893,1.14688-7.63282,3.35694-1.98567,2.20828-2.94913,4.6552-2.89392,7.33898,0,5.08973,1.98389,8.9756,5.95702,11.66115-1.79156,1.11839-4.04258,1.67758-6.75307,1.67758-2.71405,0-4.81192-.85304-6.2936-2.55911s-2.22253-3.81641-2.22253-6.33278c0-4.81014,1.55292-8.79395,4.6552-11.955,3.10584-3.15749,6.96321-4.75137,11.57745-4.78164,4.61424-.02671,6.92047-.48796,6.92047-1.38374,0-1.1736-1.65087-2.43267-4.94905-3.77367-1.90197-.78358-4.41835-1.17538-7.5509-1.17538-6.87773,0-12.44296,2.40596-16.69212,7.21432-4.07664,4.61291-6.15091,10.08363-6.26567,16.39182-1.24828,1.48425-3.10818,3.02181-5.64659,4.62248-2.79597,1.76128-4.72644,2.64103-5.78784,2.64103-1.28579,0-1.92869-2.235-1.92869-6.71033,0-4.47355,.58769-10.1207,1.76128-16.945l8.38791,.42029c.61618,.05521,1.16113-.67139,1.63662-2.18157s.71413-2.76926,.71413-3.77545c0-.39001-.04274-.68386-.12644-.87975s-.6429-.29384-1.67758-.29384-3.5101-.05521-7.42446-.16918l3.44065-6.03894c-.28138-.894-.53426-1.73279-.75509-2.51637-.89756-2.79597-2.46295-4.22245-4.69794-4.27766-2.79775,0-5.53851,4.30615-8.22051,12.91845-.89756,.05521-1.73457,.0837-2.51815,.0837h-2.01239c-.95099,1.11839-1.55292,2.11033-1.80402,2.97762s-.37755,1.97143-.37755,3.3142c0,.55919,.33658,.83879,1.00619,.83879h3.77545c-1.18005,5.3572-1.83931,9.74004-1.982,13.15375-.39513,.27314-.87252,.71112-1.45508,1.35858-5.59194,5.81633-9.11629,8.72271-10.57126,8.72271-1.1736,0-1.7595-2.3187-1.7595-6.96143,0-4.64095,.22083-8.249,.66961-10.82236,1.51018-2.57158,2.65706-4.78164,3.44065-6.62663,0-1.51018-.88153-3.11653-2.64282-4.8226-1.76306-1.70608-3.62229-2.55911-5.57769-2.55911-1.00797,0-1.90197,.81208-2.68556,2.43267-1.62237-.894-3.71846-1.34278-6.29004-1.34278-2.57514,0-5.02206,.36508-7.34076,1.09167-2.32226,.7266-4.82438,2.23678-7.50816,4.52876-5.16798,4.48212-8.18578,10.33285-9.12775,17.50598-.65547,.77969-1.38207,1.67524-2.19682,2.71049-3.57955,4.58753-7.21432,8.30599-10.90517,11.15717,2.34897-7.99612,4.16546-14.49808,5.45214-19.50412,1.28579-5.00425,1.98478-8.65326,2.09698-10.94702,0-1.1736-.69988-2.83693-2.09698-4.99001-1.39799-2.15308-2.88056-3.25722-4.44595-3.3142-1.73368,0-2.99187,1.23058-3.77456,3.69175-.95188-.50399-2.36322-.95099-4.2367-1.34278-1.87437-.39001-3.6214-.58769-5.24289-.58769-4.69705,0-9.2267,1.87526-13.58895,5.62043-5.17889,4.49158-8.1988,10.35778-9.13387,17.55172-.78848,.81263-1.70953,1.67102-2.77838,2.58104-4.08265,3.46914-8.30421,5.20193-12.66646,5.20193-2.07026-.05521-3.91525-.50399-5.53673-1.34278-1.62237-.83879-2.46117-2.26527-2.51637-4.27766v-2.09787c2.23589-1.00619,4.5154-1.91444,6.83677-2.72652,2.31959-.8103,4.4317-1.73279,6.33278-2.76748s3.45311-2.32048,4.65609-3.85915c1.20209-1.53689,1.80313-3.50832,1.80313-5.91428,0-2.40418-.82543-4.36136-2.47452-5.87154-1.64998-1.51018-3.99895-2.26527-7.04602-2.26527-3.04885,0-5.91428,.68564-8.59894,2.05513-2.68378,1.37127-5.04699,3.28571-7.08787,5.74688-2.04177,2.46117-3.67839,5.38358-4.90719,8.76546-.85337,2.34641-1.39064,4.62793-1.6522,6.85335-.69922,.84458-1.43438,1.72121-2.2488,2.66719-1.20298,1.39977-2.48877,2.68556-3.85826,3.85915-1.37127,1.17538-2.7559,1.76128-4.153,1.76128-2.68378,0-4.94905-.41851-6.79492-1.2573-1.84498-.83879-3.74696-1.76128-5.70414-2.76926,.3909-1.9554,.58769-3.71846,.58769-5.28385,0-6.43073,.30631-11.99596,.92249-16.6939,9.0032-.22261,15.71442-2.45939,20.13277-6.71033,3.18776-3.07557,4.78164-6.73882,4.78164-10.98977,0-7.43692-4.41835-11.15717-13.25414-11.15717-2.34897,0-4.58664,.50399-6.71122,1.51018-6.03983,2.90817-10.79387,9.36739-14.26034,19.37768-1.39888-.3348-2.69891-.82454-3.901-1.46744-1.20298-.6429-2.36322-.96523-3.48072-.96523-.78447,0-1.17449,.89578-1.17449,2.68556,0,.66961,.65625,1.59388,1.97143,2.76748,1.31339,1.1736,2.89392,2.23678,4.7389,3.18776-1.50929,6.48772-2.26438,13.14284-2.26438,19.96536-1.51018-.1674-3.13256-.25288-4.86534-.25288-3.24386,0-5.91428,.71413-8.01126,2.14061-2.09698,1.4247-3.14591,3.56353-3.14591,6.41648s.8103,5.14672,2.43267,6.87951c1.62148,1.73279,4.16546,2.60007,7.63371,2.60007,5.25625,0,9.64699-1.87348,13.17044-5.62043,4.92055,2.96515,9.2543,4.44506,13.00215,4.44506,5.31234-.05521,9.81439-1.94115,13.50525-5.66139,.6469-.65158,1.21622-1.30838,1.74971-1.96775,.08838,.22161,.16317,.46692,.26357,.66772,2.40418,4.81014,6.93383,7.21432,13.58984,7.21432,8.3888,0,14.98693-2.26527,19.79707-6.79581,.52636-.4962,1.00497-.99606,1.45041-1.49838,.56955,1.7634,1.53088,3.35772,2.91184,4.76984,2.40418,2.46117,5.82969,3.69175,10.27564,3.69175s8.20715-1.42648,11.28272-4.27766c-.2235,.95099-.43364,1.88594-.62865,2.81022-.19679,.92249-.43364,1.85745-.71324,2.80844-3.07646,.67139-5.97038,1.23058-8.68175,1.67936-2.71405,.447-5.07549,.9777-7.08876,1.59388-2.01328,.6144-3.5938,1.4247-4.73979,2.43267-1.14688,1.00619-1.71943,2.37568-1.71943,4.11025,0,3.18776,1.30004,5.84304,3.901,7.96941,2.60007,2.12458,5.74599,3.18598,9.43684,3.18598,5.47975,0,9.56329-1.62237,12.24706-4.86534,1.22969-1.5084,2.23678-3.27146,3.02036-5.28385,.78269-2.01417,1.51018-4.13875,2.18068-6.37552,5.70414-2.62857,10.52763-6.29182,14.47048-10.98977,.78247-.93195,1.46488-1.8343,2.09208-2.72017,.5858,1.55069,1.49226,2.96282,2.7323,4.23035,2.40418,2.46117,5.57769,3.69175,9.52055,3.69175s7.08787-.76756,9.43684-2.30801c2.34897-1.53689,4.24916-3.50832,5.70414-5.9125,1.00797,5.20015,2.99187,7.80022,5.95524,7.80022,2.18157,0,4.41656-.5307,6.71033-1.59388,2.29376-1.0614,4.37739-2.41843,6.25086-4.06751,1.78588-1.57195,3.24453-3.30241,4.39453-5.18034,.0305,.27236,.05665,.56966,.09149,.8172,.2796,1.98567,.74084,3.72024,1.38374,5.20193s1.45319,2.65706,2.43267,3.52257c.97948,.86728,2.38993,1.30004,4.2367,1.30004s4.01231-.5307,6.50197-1.59388c2.4861-1.0614,4.75137-2.41843,6.79403-4.06751,1.40511-1.13542,2.63269-2.35676,3.70689-3.65201,.7542,1.83408,1.84487,3.50275,3.29729,4.99301,3.07379,3.16105,7.70227,4.74068,13.88368,4.74068,6.17785,0,11.47594-2.60007,15.89607-7.802,1.67758,.33658,3.73271,.50399,6.16538,.50399s4.6552-.85304,6.66759-2.55911c2.01417-1.7043,3.02036-4.26341,3.02036-7.67556,0-1.84498-.39179-2.76748-1.1736-2.76748ZM69.4576,30.61854c1.73279,0,2.60096,.69988,2.60096,2.09787-.05699,1.56539-.92338,2.96515-2.60096,4.19396-.78358,.55919-1.69183,1.14688-2.72652,1.76128-1.03469,.61618-2.13883,1.31606-3.31331,2.09787,1.11839-6.76554,3.13166-10.15097,6.03983-10.15097ZM40.93692,8.22229c2.73898,0,4.11025,1.39799,4.11025,4.19396,0,1.95718-1.38463,3.90011-4.153,5.8288-2.76748,1.93047-6.16538,3.0631-10.19193,3.39791,2.12458-8.9471,5.53673-13.42066,10.23468-13.42066ZM11.40827,58.30221c-2.12547,0-3.21626-.78358-3.27146-2.34897,.05521-1.67758,1.20209-2.51637,3.43976-2.51637,1.00619,0,2.29198,.39179,3.85826,1.1736-.55919,2.46117-1.90197,3.69175-4.02655,3.69175Zm89.42296,21.64116c-1.23058,.05521-2.47452-.2796-3.73271-1.00619s-1.88773-1.59388-1.88773-2.60007c0-.50399,.23775-.86728,.71324-1.08989,.4746-.22439,1.20209-.42029,2.18068-.58769,.9777-.1674,2.22342-.36508,3.7336-.58769,1.50929-.22439,3.27146-.53248,5.28474-.92249-2.07026,4.53054-4.16724,6.79403-6.29182,6.79403Zm14.80618-44.2066c-.92338,3.29996-1.80402,6.90622-2.64282,10.82058-1.11928,3.02036-2.60007,5.20193-4.44595,6.54293-1.84498,1.34278-3.66326,2.01417-5.45214,2.01417-3.18776,0-4.78164-2.15308-4.78164-6.45923,0-5.42454,2.02574-9.92658,6.08168-13.50614,4.05416-3.57777,8.43065-5.67564,13.1277-6.29182-.3348,1.28757-.96434,3.57955-1.88683,6.87951Zm45.92693,9.3941c-.50399,1.79156-1.14688,3.30174-1.92869,4.53054-2.23678,3.57955-5.06124,5.39783-8.47339,5.45303-3.18776,0-4.77986-2.15308-4.77986-6.45923,0-5.25714,1.67758-9.61849,5.03275-13.08763,3.35516-3.46558,7.29802-5.64715,11.82856-6.54293-1.12195,4.47533-1.67936,9.84466-1.67936,16.10621Zm81.45177,1.42648c-1.45675-1.45319-2.18157-3.29818-2.18157-5.53673,0-.67139,.1674-1.36949,.50399-2.09609,.3348-.7266,.75509-1.09167,1.2573-1.09167,1.2288,0,1.84498,.95277,1.84498,2.85296,0,1.90197-.47371,3.85915-1.4247,5.87154Z" style="fill: #1aba7d;"/>
</svg>